<?xml version="1.0" encoding="iso-8859-1"?>
<!-- Generator: Adobe Illustrator 19.0.0, SVG Export Plug-In . SVG Version: 6.00 Build 0)  -->
<svg version="1.1" id="Capa_1" xmlns="http://www.w3.org/2000/svg" xmlns:xlink="http://www.w3.org/1999/xlink" x="0px" y="0px"
	 viewBox="0 0 496 496" style="enable-background:new 0 0 496 496;" xml:space="preserve">
<g>
	<g>
		<g>
			<path d="M56,360c-13.232,0-24,10.768-24,24s10.768,24,24,24s24-10.768,24-24S69.232,360,56,360z M56,392c-4.408,0-8-3.592-8-8
				c0-4.408,3.592-8,8-8s8,3.592,8,8C64,388.408,60.408,392,56,392z"/>
			<rect x="96" y="64" width="16" height="16"/>
			<path d="M288,80v416h208V80H288z M414.752,96c-2.096,7.12-7.704,16-22.752,16c-15.056,0-20.656-8.888-22.752-16H414.752z
				 M352.832,96c2.728,14.032,12.936,32,39.168,32s36.44-17.968,39.168-32h16.192c-3.904,27.096-27.208,48-55.36,48
				s-51.456-20.904-55.36-48H352.832z M320.472,96c4,35.944,34.536,64,71.528,64s67.528-28.056,71.528-64h16.064
				c-4.056,44.784-41.768,80-87.592,80c-45.824,0-83.536-35.216-87.592-80H320.472z M480,480H304V143.176
				C322.416,172.448,354.928,192,392,192c37.072,0,69.584-19.552,88-48.824V480z"/>
			<rect x="448" y="192" width="16" height="240"/>
			<rect x="448" y="448" width="16" height="16"/>
			<rect x="320" y="224" width="16" height="144"/>
			<rect x="320" y="192" width="16" height="16"/>
			<path d="M392,208c-22.056,0-40,17.944-40,40v8h16v-8c0-13.232,10.768-24,24-24s24,10.768,24,24v152h16V248
				C432,225.944,414.056,208,392,208z"/>
			<rect x="416" y="416" width="16" height="16"/>
			<rect x="352" y="272" width="16" height="16"/>
			<path d="M208,344.2V104C208,46.656,161.344,0,104,0S0,46.656,0,104v392h163.744l13.336-16H204c37.496,0,68-30.504,68-68
				C272,375.856,243.632,346.288,208,344.2z M208,392.408c9.12,1.856,16,9.936,16,19.592s-6.88,17.736-16,19.592V392.408z M192,104
				h-16c0-5.504-0.68-10.848-1.856-16h16.328C191.432,93.2,192,98.528,192,104z M176,296v-16h16v16H176z M192,312v16h-16v-16H192z
				 M176,264v-16h16v16H176z M176,232v-16h16v16H176z M176,200v-16h16v16H176z M176,168v-16h16v16H176z M176,136v-16h16v16H176z
				 M185.888,72H168.4c-1.432-2.872-2.992-5.672-4.776-8.312l11.416-11.416C179.456,58.32,183.12,64.928,185.888,72z
				 M147.224,27.432c6.272,3.552,12.04,7.864,17.232,12.792l-11.304,11.312c-3.976-3.728-8.36-7-13.096-9.76L147.224,27.432z
				 M112,16.408c7.16,0.648,14.048,2.2,20.616,4.464l-7.192,14.384c-4.312-1.344-8.808-2.272-13.424-2.784V16.408z M160,104v224h-48
				V96H96v232H48V104c0-30.88,25.12-56,56-56S160,73.12,160,104z M96,16.408v16.064c-4.616,0.512-9.112,1.44-13.424,2.784
				l-7.192-14.384C81.952,18.608,88.84,17.056,96,16.408z M60.776,27.44l7.168,14.336c-4.736,2.76-9.12,6.032-13.096,9.76
				L43.536,40.224C48.736,35.304,54.504,30.992,60.776,27.44z M32.96,52.272l11.416,11.416c-1.792,2.64-3.344,5.44-4.776,8.312
				H22.112C24.888,64.928,28.544,58.32,32.96,52.272z M17.528,88h16.328C32.68,93.152,32,98.496,32,104H16
				C16,98.528,16.568,93.2,17.528,88z M16,120h16v16H16V120z M16,152h16v16H16V152z M16,184h16v16H16V184z M16,216h16v16H16V216z
				 M16,248h16v16H16V248z M16,280h16v16H16V280z M16,312h16v16H16V312z M156.256,480H16V344h80h16h80v93.104L156.256,480z M204,464
				h-13.584l13.336-16H204c19.848,0,36-16.152,36-36c0-18.48-14.048-33.576-32-35.592v-16.2c26.808,2.056,48,24.472,48,51.8
				C256,440.672,232.672,464,204,464z"/>
			<path d="M96,440h40c13.232,0,24-10.768,24-24v-56H96V440z M112,408h16v-16h-16v-16h32v40c0,4.408-3.592,8-8,8h-24V408z"/>
		</g>
	</g>
</g>
<g>
</g>
<g>
</g>
<g>
</g>
<g>
</g>
<g>
</g>
<g>
</g>
<g>
</g>
<g>
</g>
<g>
</g>
<g>
</g>
<g>
</g>
<g>
</g>
<g>
</g>
<g>
</g>
<g>
</g>
</svg>
